HIERARCHY
ROOT Hips
{
	OFFSET -0.001795 -0.223333 0.028219
	CHANNELS 6 Xposition Yposition Zposition Zrotation Yrotation Xrotation 
	JOINT LeftUpLeg
	{
		OFFSET 0.069520 -0.091406 -0.006815
		CHANNELS 3 Zrotation Yrotation Xrotation
		JOINT LeftLeg
		{
			OFFSET 0.034277 -0.375199 -0.004496
			CHANNELS 3 Zrotation Yrotation Xrotation
			JOINT LeftFoot
			{
				OFFSET -0.013596 -0.397961 -0.043693
				CHANNELS 3 Zrotation Yrotation Xrotation
				JOINT LeftToe
				{
					OFFSET 0.026358 -0.055791 0.119288
					CHANNELS 3 Zrotation Yrotation Xrotation
					End Site
					{
						OFFSET 0.000000 0.000000 0.000000
					}
				}
			}
		}
	}
	JOINT RightUpLeg
	{
		OFFSET -0.067670 -0.090522 -0.004320
		CHANNELS 3 Zrotation Yrotation Xrotation
		JOINT RightLeg
		{
			OFFSET -0.038290 -0.382569 -0.008850
			CHANNELS 3 Zrotation Yrotation Xrotation
			JOINT RightFoot
			{
				OFFSET 0.015774 -0.398415 -0.042312
				CHANNELS 3 Zrotation Yrotation Xrotation
				JOINT RightToe
				{
					OFFSET -0.025372 -0.048144 0.123348
					CHANNELS 3 Zrotation Yrotation Xrotation
					End Site
					{
						OFFSET 0.000000 0.000000 0.000000
					}
				}
			}
		}
	}
	JOINT Spine
	{
		OFFSET -0.002533 0.108963 -0.026696
		CHANNELS 3 Zrotation Yrotation Xrotation
		JOINT Spine1
		{
			OFFSET 0.005487 0.135180 0.001092
			CHANNELS 3 Zrotation Yrotation Xrotation
			JOINT Spine2
			{
				OFFSET 0.001457 0.052922 0.025425
				CHANNELS 3 Zrotation Yrotation Xrotation
				JOINT Neck
				{
					OFFSET -0.002778 0.213870 -0.042857
					CHANNELS 3 Zrotation Yrotation Xrotation
					JOINT Head
					{
						OFFSET 0.005152 0.064970 0.051349
						CHANNELS 3 Zrotation Yrotation Xrotation
						End Site
						{
							OFFSET 0.000000 0.000000 0.000000
						}
					}
				}
				JOINT LeftShoulder
				{
					OFFSET 0.078845 0.121749 -0.034090
					CHANNELS 3 Zrotation Yrotation Xrotation
					JOINT LeftArm
					{
						OFFSET 0.090977 0.030469 -0.008868
						CHANNELS 3 Zrotation Yrotation Xrotation
						JOINT LeftForeArm
						{
							OFFSET 0.259612 -0.012772 -0.027456
							CHANNELS 3 Zrotation Yrotation Xrotation
							JOINT LeftHand
							{
								OFFSET 0.249234 0.008986 -0.001171
								CHANNELS 3 Zrotation Yrotation Xrotation
								End Site
								{
									OFFSET 0.000000 0.000000 0.000000
								}
							}
						}
					}
				}
				JOINT RightShoulder
				{
					OFFSET -0.081759 0.118833 -0.038615
					CHANNELS 3 Zrotation Yrotation Xrotation
					JOINT RightArm
					{
						OFFSET -0.096012 0.032551 -0.009143
						CHANNELS 3 Zrotation Yrotation Xrotation
						JOINT RightForeArm
						{
							OFFSET -0.253742 -0.013329 -0.021401
							CHANNELS 3 Zrotation Yrotation Xrotation
							JOINT RightHand
							{
								OFFSET -0.255298 0.007772 -0.005559
								CHANNELS 3 Zrotation Yrotation Xrotation
								End Site
								{
									OFFSET 0.000000 0.000000 0.000000
								}
							}
						}
					}
				}
			}
		}
	}
}
MOTION
Frames: 18
Frame Time: 0.050000
0.312268 0.905447 0.742791 2.239713 -1.293395 -12.581731 0.511391 0.761195 8.385764 -5.953875 0.884921 9.093280 4.490647 8.377332 -4.174156 0.000000 0.000000 0.000000 -15.387131 -0.200195 -5.427791 5.516048 -0.601721 24.543388 -3.706551 -10.359342 3.939684 0.000000 0.000000 0.000000 5.357009 -1.879347 24.403712 -10.195168 3.333002 -23.625318 -2.096564 7.171714 25.618677 10.808957 -3.490822 -27.914633 0.000000 0.000000 0.000000 -13.800577 -20.773658 7.756339 -45.611410 -27.715045 3.043780 134.201907 -78.242068 -120.933544 0.000000 0.000000 0.000000 29.343422 6.878567 5.130414 48.927351 12.422640 -2.880794 1.559596 33.243512 2.318377 0.000000 0.000000 0.000000 
0.311974 0.907258 0.742105 2.265020 -1.588903 -12.745846 0.325623 0.877442 9.482321 -5.943081 0.864730 7.840414 4.270358 8.078074 -3.585759 0.000000 0.000000 0.000000 -15.394382 -0.189556 -5.414224 5.342891 -0.522896 24.245538 -3.279403 -9.520554 4.248658 0.000000 0.000000 0.000000 5.523639 -1.892101 24.422775 -10.386094 3.346435 -24.126668 -2.415828 7.552492 25.407292 11.193135 -3.579876 -28.389214 0.000000 0.000000 0.000000 -13.307442 -20.919861 7.732784 -46.491797 -27.999774 3.261117 133.179670 -78.226317 -119.860019 0.000000 0.000000 0.000000 29.252667 6.119364 4.714874 49.520049 11.171426 -3.406311 2.699934 32.213268 2.560777 0.000000 0.000000 0.000000 
0.311816 0.909455 0.741491 2.140061 -1.754078 -12.639983 0.177479 0.953505 10.163571 -5.845864 0.834172 7.089506 4.008670 7.586747 -3.300125 0.000000 0.000000 0.000000 -15.382120 -0.180129 -5.507047 5.183154 -0.463095 24.042137 -2.707317 -8.412787 4.689925 0.000000 0.000000 0.000000 5.640839 -1.885641 24.154658 -10.394445 3.332229 -24.314915 -2.523905 7.835090 25.185866 11.245097 -3.578785 -28.259738 0.000000 0.000000 0.000000 -12.691183 -20.903127 7.637969 -47.075623 -28.535678 3.543029 131.908986 -78.252643 -118.559020 0.000000 0.000000 0.000000 29.212477 5.382023 4.303116 49.921269 10.211273 -3.801806 3.194378 31.600056 2.652387 0.000000 0.000000 0.000000 
0.311648 0.911188 0.740891 1.995767 -1.691196 -12.187449 0.059995 0.981505 10.395236 -5.878535 0.821973 6.325960 3.965626 7.583467 -2.967978 0.000000 0.000000 0.000000 -15.311532 -0.170445 -5.625229 5.218915 -0.490599 23.494852 -2.271570 -7.562704 5.002670 0.000000 0.000000 0.000000 5.804098 -1.875310 23.504323 -10.507489 3.315180 -24.795261 -2.716526 7.813542 25.061193 11.539375 -3.587499 -29.023716 0.000000 0.000000 0.000000 -12.329346 -21.046992 7.672422 -47.348923 -28.258778 3.464789 131.354794 -77.750445 -117.485140 0.000000 0.000000 0.000000 29.158860 4.798796 3.943795 50.498237 8.824490 -4.378270 4.504022 30.822171 2.924808 0.000000 0.000000 0.000000 
0.311466 0.913237 0.740231 1.949166 -2.000039 -11.916140 -0.111507 1.034487 10.744380 -5.886153 0.815812 5.677559 4.092489 8.032447 -2.467205 0.000000 0.000000 0.000000 -15.319280 -0.147345 -5.694575 5.314331 -0.503586 23.222059 -2.158914 -7.439739 5.318279 0.000000 0.000000 0.000000 5.706280 -1.823442 23.215086 -10.568939 3.298480 -25.150565 -2.682644 7.922837 25.076941 11.600840 -3.508803 -29.674969 0.000000 0.000000 0.000000 -12.202378 -20.843970 7.596769 -47.014505 -28.240485 3.402132 131.224668 -77.167699 -116.777535 0.000000 0.000000 0.000000 29.331377 4.459037 3.705884 50.634184 8.024792 -4.710257 5.669785 30.685785 3.212890 0.000000 0.000000 0.000000 
0.311293 0.914834 0.739563 1.929925 -2.378535 -11.483442 -0.197462 1.057904 10.828865 -6.197122 0.862897 5.124261 4.287675 8.721354 -1.564021 0.000000 0.000000 0.000000 -15.254949 -0.117405 -5.918482 5.404420 -0.512516 22.786338 -2.008803 -7.344498 5.926038 0.000000 0.000000 0.000000 5.696800 -1.762710 22.634941 -10.685918 3.295525 -25.423834 -2.966552 7.963829 25.001883 11.738034 -3.466964 -30.391436 0.000000 0.000000 0.000000 -12.108485 -20.674091 7.555919 -46.626217 -27.772820 3.166578 131.617191 -76.771552 -116.793920 0.000000 0.000000 0.000000 29.118021 4.127048 3.415044 51.240701 7.323717 -4.992862 6.974024 30.064569 3.469577 0.000000 0.000000 0.000000 
0.311078 0.916214 0.738890 1.735377 -2.667757 -11.338464 -0.027921 1.080367 11.132417 -6.366690 0.882147 4.571319 4.330631 8.929045 -1.157214 0.000000 0.000000 0.000000 -15.056698 -0.094842 -6.044837 5.691268 -0.587736 22.372559 -2.001190 -7.477164 6.318865 0.000000 0.000000 0.000000 5.702721 -1.737474 22.403709 -10.666171 3.263668 -25.664048 -2.986068 8.209279 25.032438 12.113187 -3.657355 -30.402062 0.000000 0.000000 0.000000 -11.508688 -20.454411 7.406023 -46.880564 -27.519980 3.064356 132.325232 -76.374664 -117.276655 0.000000 0.000000 0.000000 28.964501 3.596243 3.097303 51.886178 6.707494 -5.287837 7.576545 29.726049 3.598459 0.000000 0.000000 0.000000 
0.310911 0.918030 0.738181 1.557535 -3.051983 -11.026694 -0.180250 1.111443 11.243511 -6.398303 0.884287 4.197677 4.447145 9.363675 -0.434626 0.000000 0.000000 0.000000 -14.596273 -0.052338 -6.197352 5.879365 -0.627838 21.775720 -2.039111 -7.767681 6.883592 0.000000 0.000000 0.000000 5.691004 -1.674251 21.757409 -10.589830 3.234728 -25.642289 -3.109905 8.553755 25.001898 12.742676 -3.964202 -30.469072 0.000000 0.000000 0.000000 -10.951552 -20.456643 7.354706 -46.373050 -26.775556 2.699793 132.384763 -75.540457 -116.705230 0.000000 0.000000 0.000000 28.802522 3.197928 2.879575 52.455150 6.272461 -5.498793 8.330963 29.071915 3.706295 0.000000 0.000000 0.000000 
0.310767 0.920418 0.737333 1.532613 -3.094454 -10.961941 -0.257077 1.128175 11.335720 -6.415538 0.885800 4.128966 4.618960 9.878640 0.266901 0.000000 0.000000 0.000000 -14.153965 -0.023827 -5.924271 6.030720 -0.673463 21.459109 -2.317393 -8.402092 7.057261 0.000000 0.000000 0.000000 5.563680 -1.637188 21.548078 -10.560333 3.217046 -25.755694 -3.088238 8.614857 24.972119 12.779906 -4.001429 -30.354438 0.000000 0.000000 0.000000 -10.566786 -20.419068 7.311773 -45.975523 -25.904466 2.307457 134.410460 -75.702206 -119.252861 0.000000 0.000000 0.000000 28.724938 3.010244 2.757548 52.780521 5.963857 -5.640908 8.550507 28.807800 3.723583 0.000000 0.000000 0.000000 
0.310680 0.923538 0.736278 1.509102 -2.885366 -10.530818 -0.481826 1.123174 11.152106 -6.289479 0.853160 3.833356 4.662977 10.229196 1.569756 0.000000 0.000000 0.000000 -13.630702 0.005512 -5.607087 6.475676 -0.821752 20.606543 -2.795179 -9.520659 7.580589 0.000000 0.000000 0.000000 5.487801 -1.576668 20.715146 -10.576197 3.215657 -25.722118 -3.007799 8.216343 25.120447 12.258396 -3.719132 -30.504210 0.000000 0.000000 0.000000 -10.713185 -20.378653 7.362717 -45.373866 -25.344780 2.038996 132.904212 -75.937267 -117.587166 0.000000 0.000000 0.000000 28.498511 3.246698 2.803999 53.033205 5.748216 -5.711234 8.569297 28.468980 3.660567 0.000000 0.000000 0.000000 
0.310662 0.925874 0.734986 1.297947 -2.684051 -10.442304 -0.382373 1.110535 11.160512 -6.211983 0.832200 3.656894 4.354910 9.743895 2.215873 0.000000 0.000000 0.000000 -13.031139 0.024537 -5.245093 6.781254 -0.923314 20.053958 -3.038653 -10.064213 7.828681 0.000000 0.000000 0.000000 5.384528 -1.536526 20.258850 -10.472950 3.209856 -25.461169 -2.893175 8.018810 25.009792 12.263136 -3.755905 -30.356225 0.000000 0.000000 0.000000 -10.941477 -20.177631 7.303947 -45.164399 -24.816853 1.841554 134.233962 -76.545658 -119.652574 0.000000 0.000000 0.000000 28.583819 3.149051 2.709026 52.998211 5.619991 -5.741021 8.500137 28.297239 3.609731 0.000000 0.000000 0.000000 
0.310652 0.928067 0.733408 0.983292 -2.580270 -9.886117 -0.093097 1.035119 10.673492 -6.502188 0.868588 3.482289 4.555253 10.302021 3.042954 0.000000 0.000000 0.000000 -12.574361 0.047583 -5.442590 7.370241 -1.095351 19.554308 -3.477281 -11.156664 8.759924 0.000000 0.000000 0.000000 5.117025 -1.429064 19.182309 -10.050440 3.109673 -25.205387 -2.741390 7.815482 24.860539 11.848333 -3.627631 -29.785772 0.000000 0.000000 0.000000 -11.212067 -19.760846 7.171373 -44.710073 -24.972334 1.887496 131.440369 -77.091183 -116.933012 0.000000 0.000000 0.000000 28.381600 3.459003 2.851617 52.869425 5.386655 -5.784876 8.412048 28.378901 3.588130 0.000000 0.000000 0.000000 
0.310660 0.929676 0.731578 0.760931 -2.453125 -9.787301 0.184976 0.984123 10.408061 -6.604490 0.884176 3.606484 4.665006 10.601033 3.499231 0.000000 0.000000 0.000000 -12.100390 0.060954 -5.505938 7.640375 -1.180969 19.526537 -3.699485 -11.708587 9.341610 0.000000 0.000000 0.000000 4.994728 -1.374297 18.587567 -9.758068 3.045090 -24.988570 -2.741135 7.622181 24.897317 11.513699 -3.520036 -29.420004 0.000000 0.000000 0.000000 -11.332339 -19.679248 7.165147 -44.204051 -25.007250 1.862712 128.067806 -77.322896 -113.345664 0.000000 0.000000 0.000000 27.916001 3.670835 2.932002 52.977567 5.809681 -5.581759 8.141078 28.122833 3.476297 0.000000 0.000000 0.000000 
0.310651 0.931728 0.729586 0.628510 -2.449579 -9.528675 0.393433 0.942782 10.145229 -6.759517 0.909281 3.691212 4.579472 10.562561 4.151668 0.000000 0.000000 0.000000 -11.735546 0.080041 -5.547300 8.222232 -1.337021 19.164368 -4.100972 -12.566189 9.780490 0.000000 0.000000 0.000000 4.658921 -1.284969 17.945582 -9.457316 2.972092 -24.839233 -2.487235 7.219790 24.954208 10.704720 -3.216038 -28.882142 0.000000 0.000000 0.000000 -11.285257 -19.333434 7.090817 -43.652081 -25.761191 2.073168 122.952475 -77.127626 -107.311817 0.000000 0.000000 0.000000 27.330545 4.183801 3.088724 53.135376 6.214410 -5.356871 7.999235 28.117655 3.420297 0.000000 0.000000 0.000000 
0.310622 0.933627 0.727628 0.561041 -2.348377 -9.382106 0.515377 0.927599 10.104271 -7.015672 0.935866 3.357343 4.448077 10.437576 4.771006 0.000000 0.000000 0.000000 -11.446555 0.090296 -5.370226 8.485474 -1.410382 18.887521 -4.116761 -12.619611 9.945497 0.000000 0.000000 0.000000 4.497822 -1.245033 17.620747 -9.252243 2.932465 -24.601169 -2.599316 7.015876 24.607975 10.428564 -3.113018 -28.607106 0.000000 0.000000 0.000000 -11.768086 -19.457215 7.195865 -43.201736 -25.919684 2.136844 116.451316 -76.952882 -100.097647 0.000000 0.000000 0.000000 27.325979 4.389060 3.156302 53.165790 6.304496 -5.268762 7.867945 27.949781 3.350236 0.000000 0.000000 0.000000 
0.310618 0.935803 0.725676 0.465411 -2.279693 -9.053200 0.619215 0.912046 10.039558 -7.242413 0.943818 2.611769 4.659873 11.010916 5.734462 0.000000 0.000000 0.000000 -11.096757 0.108165 -5.344654 9.193282 -1.593933 18.425670 -4.775611 -13.936641 10.432490 0.000000 0.000000 0.000000 4.037456 -1.169889 17.310856 -8.963737 2.844242 -24.767137 -2.319745 6.506322 24.388698 9.787717 -2.894704 -28.135500 0.000000 0.000000 0.000000 -12.673147 -18.910930 7.105322 -42.862702 -26.529761 2.347185 110.774539 -77.378758 -94.311633 0.000000 0.000000 0.000000 27.459561 4.737692 3.202394 52.971273 6.137912 -5.268894 7.431599 28.012902 3.227551 0.000000 0.000000 0.000000 
0.310661 0.937498 0.723634 0.412021 -2.288008 -8.823227 0.744079 0.898595 9.994641 -7.372575 0.947393 2.165790 4.720436 11.206034 6.214219 0.000000 0.000000 0.000000 -10.951920 0.119893 -5.528884 9.532856 -1.688560 18.542815 -5.048648 -14.488411 10.735720 0.000000 0.000000 0.000000 3.481103 -1.090461 17.158225 -8.510309 2.724749 -24.770051 -2.173556 6.137004 24.194023 9.340527 -2.760916 -27.722282 0.000000 0.000000 0.000000 -12.814685 -18.238014 6.885538 -43.106233 -27.111934 2.582199 106.359697 -77.669615 -89.838970 0.000000 0.000000 0.000000 27.024453 4.826443 3.088733 53.116145 6.269137 -5.149098 7.476739 27.775261 3.185071 0.000000 0.000000 0.000000 
0.310785 0.939292 0.721573 0.344918 -2.081622 -8.294189 1.115606 0.822132 9.497557 -7.741487 0.990862 2.115731 4.617889 11.134255 6.827418 0.000000 0.000000 0.000000 -11.053729 0.123783 -5.908304 10.068077 -1.842865 18.446771 -4.927628 -14.295061 11.054166 0.000000 0.000000 0.000000 3.064198 -1.016038 16.660824 -8.149462 2.629219 -24.814709 -1.861285 5.457577 24.199443 8.612643 -2.483852 -27.415104 0.000000 0.000000 0.000000 -13.549405 -17.269169 6.611704 -43.443983 -27.683024 2.814073 101.525627 -78.617094 -85.553242 0.000000 0.000000 0.000000 26.827112 5.034957 3.006227 52.949138 6.228145 -5.095042 7.297116 27.807156 3.118389 0.000000 0.000000 0.000000 
